<?xml version="1.0" encoding="UTF-8" standalone="no"?>
<!-- Created with Inkscape (http://www.inkscape.org/) -->

<svg
   version="1.1"
   id="svg3156"
   xml:space="preserve"
   width="256"
   height="256"
   viewBox="0 0 682.66669 682.66669"
   xmlns="http://www.w3.org/2000/svg"
   xmlns:svg="http://www.w3.org/2000/svg"><defs
     id="defs3160"><clipPath
       clipPathUnits="userSpaceOnUse"
       id="clipPath3170"><path
         d="M 0,512 H 512 V 0 H 0 Z"
         id="path3168" /></clipPath></defs><g
     id="g3162"
     transform="matrix(1.3333333,0,0,-1.3333333,0,682.66667)"><g
       id="g3164"><g
         id="g3166"
         clip-path="url(#clipPath3170)"><g
           id="g3172"
           transform="translate(188.1611,289.2354)"><path
             d="m 0,0 h 227.297 c 22.431,0 40.615,-18.184 40.615,-40.613 v -156.515 c 0,-22.431 -18.184,-40.614 -40.615,-40.614 h -65.314 l -14.289,-41.493 -60.087,41.493 H 0 c -22.43,0 -40.614,18.183 -40.614,40.614 V -40.613 C -40.614,-18.184 -22.43,0 0,0"
             style="fill:#ffda8f;fill-opacity:1;fill-rule:nonzero;stroke:none"
             id="path3174" /></g><g
           id="g3176"
           transform="translate(453.4863,262.915)"><path
             d="m 0,0 c 1.672,-4.446 2.586,-9.263 2.586,-14.293 v -156.515 c 0,-22.43 -18.183,-40.614 -40.614,-40.614 h -65.314 l -14.289,-41.493 -60.087,41.493 h -87.607 c -13.349,0 -25.193,6.441 -32.596,16.383"
             style="fill:none;stroke:#000000;stroke-width:20;stroke-linecap:round;stroke-linejoin:round;stroke-miterlimit:10;stroke-dasharray:none;stroke-opacity:1"
             id="path3178" /></g><g
           id="g3180"
           transform="translate(193.4746,335.9785)"><path
             d="m 0,0 v 125.407 c 0,22.431 18.184,40.614 40.614,40.614 h 227.297 c 22.431,0 40.614,-18.183 40.614,-40.614 V -31.106 c 0,-22.431 -18.183,-40.615 -40.614,-40.615 h -65.314 l -14.289,-41.493 -60.087,41.493"
             style="fill:#ff7d97;fill-opacity:1;fill-rule:nonzero;stroke:#000000;stroke-width:20;stroke-linecap:round;stroke-linejoin:round;stroke-miterlimit:10;stroke-dasharray:none;stroke-opacity:1"
             id="path3182" /></g><g
           id="g3184"
           transform="translate(431.8228,386.8008)"><path
             d="m 0,0 c 0,-43.996 -35.666,-79.662 -79.662,-79.662 -43.995,0 -79.661,35.666 -79.661,79.662 0,43.995 35.666,79.661 79.661,79.661 C -35.666,79.661 0,43.995 0,0"
             style="fill:#ffe6b4;fill-opacity:1;fill-rule:nonzero;stroke:#000000;stroke-width:20;stroke-linecap:round;stroke-linejoin:round;stroke-miterlimit:10;stroke-dasharray:none;stroke-opacity:1"
             id="path3186" /></g><g
           id="g3188"
           transform="translate(330.5635,407.3535)"><path
             d="M 0,0 V -8.719"
             style="fill:none;stroke:#000000;stroke-width:20;stroke-linecap:round;stroke-linejoin:round;stroke-miterlimit:10;stroke-dasharray:none;stroke-opacity:1"
             id="path3190" /></g><g
           id="g3192"
           transform="translate(373.7588,407.3535)"><path
             d="M 0,0 V -8.719"
             style="fill:none;stroke:#000000;stroke-width:20;stroke-linecap:round;stroke-linejoin:round;stroke-miterlimit:10;stroke-dasharray:none;stroke-opacity:1"
             id="path3194" /></g><g
           id="g3196"
           transform="translate(369.8032,361.1426)"><path
             d="M 0,0 C -9.744,-9.744 -25.541,-9.744 -35.284,0"
             style="fill:none;stroke:#000000;stroke-width:20;stroke-linecap:round;stroke-linejoin:round;stroke-miterlimit:10;stroke-dasharray:none;stroke-opacity:1"
             id="path3198" /></g><g
           id="g3200"
           transform="translate(76.7793,332.6182)"><path
             d="m 0,0 h -26.165 c -22.431,0 -40.614,-18.184 -40.614,-40.614 v -156.515 c 0,-22.431 18.183,-40.613 40.614,-40.613 h 65.314 l 14.289,-41.494 60.087,41.494 h 87.607 c 22.43,0 40.614,18.182 40.614,40.613 V -40.614 C 241.746,-18.184 223.562,0 201.132,0 H 90.412"
             style="fill:#ccf5fc;fill-opacity:1;fill-rule:nonzero;stroke:#000000;stroke-width:20;stroke-linecap:round;stroke-linejoin:round;stroke-miterlimit:10;stroke-dasharray:none;stroke-opacity:1"
             id="path3202" /></g><g
           id="g3204"
           transform="translate(163.4966,260.4775)"><path
             d="m 0,0 c 0.39,-0.495 1.143,-0.495 1.533,0 3.18,4.003 16.22,18.441 38.921,18.441 23.494,0 39.687,-19.978 39.687,-43.244 0,-26.79 -22.722,-63.913 -79.375,-91.508 -56.654,27.595 -79.374,64.715 -79.374,91.508 0,23.266 16.193,43.244 39.686,43.244 C -16.221,18.441 -3.18,4.003 0,0"
             style="fill:#ff9eb1;fill-opacity:1;fill-rule:nonzero;stroke:none"
             id="path3206" /></g><g
           id="g3208"
           transform="translate(163.4966,260.4775)"><path
             d="m 0,0 c 0.39,-0.495 1.143,-0.495 1.533,0 3.18,4.003 16.22,18.441 38.921,18.441 23.494,0 39.687,-19.978 39.687,-43.244 0,-26.79 -22.722,-63.913 -79.375,-91.508 -56.654,27.595 -79.374,64.715 -79.374,91.508 0,23.266 16.193,43.244 39.686,43.244 C -16.221,18.441 -3.18,4.003 0,0 Z"
             style="fill:none;stroke:#000000;stroke-width:20;stroke-linecap:round;stroke-linejoin:round;stroke-miterlimit:10;stroke-dasharray:none;stroke-opacity:1"
             id="path3210" /></g><g
           id="g3212"
           transform="translate(122.1685,332.6182)"><path
             d="M 0,0 V 0"
             style="fill:none;stroke:#000000;stroke-width:20;stroke-linecap:round;stroke-linejoin:round;stroke-miterlimit:10;stroke-dasharray:none;stroke-opacity:1"
             id="path3214" /></g></g></g></g></svg>
